<svg data-v-5f19e91b="" xmlns="http://www.w3.org/2000/svg" width="382" height="90" viewBox="0 0 382 90"><!----> <!----> <!----> <g data-v-5f19e91b="" id="6739a90b-d446-7cb2-e82a-7224ba2f1dd1" fill="black" transform="matrix(4.743082789406028,0,0,4.743082789406028,106.57334826697314,1.0079043529915097)"><path d="M3.43 12.61L3.43 4.15L0.28 4.15L0.28 2.95L7.98 2.95L7.98 4.15L4.83 4.15L4.83 12.61L3.43 12.61ZM12.02 12.72L12.02 12.72Q10.96 12.72 10.23 12.24L10.23 12.24L10.23 12.24Q9.50 11.76 9.13 10.97L9.13 10.97L9.13 10.97Q8.76 10.18 8.76 9.22L8.76 9.22L8.76 9.22Q8.76 8.29 9.12 7.47L9.12 7.47L9.12 7.47Q9.47 6.66 10.18 6.16L10.18 6.16L10.18 6.16Q10.89 5.66 11.91 5.66L11.91 5.66L11.91 5.66Q12.99 5.66 13.67 6.16L13.67 6.16L13.67 6.16Q14.34 6.65 14.64 7.42L14.64 7.42L14.64 7.42Q14.93 8.19 14.93 9.04L14.93 9.04L14.93 9.04Q14.93 9.41 14.89 9.63L14.89 9.63L10.17 9.63L10.17 9.63Q10.21 10.48 10.68 11.01L10.68 11.01L10.68 11.01Q11.15 11.54 12.02 11.54L12.02 11.54L12.02 11.54Q12.58 11.54 13.01 11.37L13.01 11.37L13.01 11.37Q13.45 11.20 13.81 10.81L13.81 10.81L14.72 11.58L14.72 11.58Q14.16 12.17 13.51 12.44L13.51 12.44L13.51 12.44Q12.86 12.72 12.02 12.72L12.02 12.72ZM10.17 8.62L13.64 8.62L13.64 8.62Q13.60 7.79 13.16 7.27L13.16 7.27L13.16 7.27Q12.73 6.76 11.90 6.76L11.90 6.76L11.90 6.76Q11.11 6.76 10.67 7.28L10.67 7.28L10.67 7.28Q10.24 7.80 10.17 8.62L10.17 8.62ZM16.52 12.61L16.52 5.78L17.86 5.78L17.86 6.67L17.86 6.67Q18.12 6.19 18.60 5.91L18.60 5.91L18.60 5.91Q19.09 5.63 19.65 5.63L19.65 5.63L19.65 5.63Q20.34 5.63 20.86 5.96L20.86 5.96L20.86 5.96Q21.38 6.30 21.66 6.96L21.66 6.96L21.66 6.96Q22.02 6.31 22.58 5.97L22.58 5.97L22.58 5.97Q23.15 5.63 23.85 5.63L23.85 5.63L23.85 5.63Q24.68 5.63 25.22 6.02L25.22 6.02L25.22 6.02Q25.77 6.41 26.03 7.05L26.03 7.05L26.03 7.05Q26.30 7.70 26.30 8.48L26.30 8.48L26.30 12.61L24.95 12.61L24.95 8.63L24.95 8.63Q24.95 7.85 24.66 7.33L24.66 7.33L24.66 7.33Q24.37 6.82 23.66 6.82L23.66 6.82L23.66 6.82Q23.17 6.82 22.81 7.11L22.81 7.11L22.81 7.11Q22.45 7.39 22.26 7.85L22.26 7.85L22.26 7.85Q22.07 8.31 22.07 8.84L22.07 8.84L22.07 12.61L20.73 12.61L20.73 8.60L20.73 8.60Q20.73 7.82 20.44 7.32L20.44 7.32L20.44 7.32Q20.16 6.82 19.46 6.82L19.46 6.82L19.46 6.82Q18.96 6.82 18.60 7.12L18.60 7.12L18.60 7.12Q18.24 7.42 18.05 7.91L18.05 7.91L18.05 7.91Q17.86 8.40 17.86 8.96L17.86 8.96L17.86 12.61L16.52 12.61ZM28.29 15.60L28.29 5.78L29.62 5.78L29.62 6.59L29.62 6.59Q29.96 6.13 30.48 5.88L30.48 5.88L30.48 5.88Q31.01 5.63 31.63 5.63L31.63 5.63L31.63 5.63Q32.53 5.63 33.18 6.11L33.18 6.11L33.18 6.11Q33.82 6.58 34.16 7.39L34.16 7.39L34.16 7.39Q34.49 8.20 34.49 9.19L34.49 9.19L34.49 9.19Q34.49 10.17 34.16 10.98L34.16 10.98L34.16 10.98Q33.83 11.79 33.19 12.26L33.19 12.26L33.19 12.26Q32.54 12.74 31.64 12.74L31.64 12.74L31.64 12.74Q31.03 12.74 30.50 12.50L30.50 12.50L30.50 12.50Q29.97 12.26 29.62 11.79L29.62 11.79L29.62 15.60L28.29 15.60ZM31.32 11.56L31.32 11.56Q31.93 11.56 32.34 11.24L32.34 11.24L32.34 11.24Q32.76 10.92 32.96 10.39L32.96 10.39L32.96 10.39Q33.15 9.85 33.15 9.19L33.15 9.19L33.15 9.19Q33.15 8.52 32.96 7.98L32.96 7.98L32.96 7.98Q32.76 7.44 32.34 7.12L32.34 7.12L32.34 7.12Q31.93 6.79 31.32 6.79L31.32 6.79L31.32 6.79Q30.71 6.79 30.30 7.12L30.30 7.12L30.30 7.12Q29.89 7.44 29.70 7.98L29.70 7.98L29.70 7.98Q29.50 8.52 29.50 9.19L29.50 9.19L29.50 9.19Q29.50 9.85 29.70 10.39L29.70 10.39L29.70 10.39Q29.89 10.92 30.30 11.24L30.30 11.24L30.30 11.24Q30.71 11.56 31.32 11.56L31.32 11.56ZM37.35 12.74L37.35 12.74Q36.68 12.74 36.39 12.37L36.39 12.37L36.39 12.37Q36.09 12.00 36.09 11.24L36.09 11.24L36.09 2.95L37.42 2.95L37.42 11.15L37.42 11.15Q37.42 11.27 37.53 11.42L37.53 11.42L37.53 11.42Q37.63 11.57 37.86 11.57L37.86 11.57L37.86 11.57Q38.17 11.57 38.42 11.51L38.42 11.51L38.42 12.61L38.42 12.61Q38.19 12.66 37.90 12.70L37.90 12.70L37.90 12.70Q37.61 12.74 37.35 12.74L37.35 12.74ZM41.56 12.74L41.56 12.74Q40.89 12.74 40.36 12.49L40.36 12.49L40.36 12.49Q39.83 12.24 39.53 11.75L39.53 11.75L39.53 11.75Q39.22 11.27 39.22 10.61L39.22 10.61L39.22 10.61Q39.22 9.58 39.97 9.10L39.97 9.10L39.97 9.10Q40.72 8.62 42.10 8.62L42.10 8.62L43.76 8.62L43.76 8.62Q43.76 7.77 43.38 7.28L43.38 7.28L43.38 7.28Q43.00 6.79 42.23 6.79L42.23 6.79L42.23 6.79Q41.63 6.79 41.19 7.07L41.19 7.07L41.19 7.07Q40.76 7.36 40.48 7.79L40.48 7.79L39.48 7.05L39.48 7.05Q39.98 6.36 40.64 6.00L40.64 6.00L40.64 6.00Q41.31 5.63 42.20 5.63L42.20 5.63L42.20 5.63Q43.08 5.63 43.71 5.98L43.71 5.98L43.71 5.98Q44.34 6.34 44.67 6.97L44.67 6.97L44.67 6.97Q45.00 7.60 45.00 8.44L45.00 8.44L45.00 12.61L43.90 12.61L43.83 11.45L43.83 11.45Q43.45 12.13 42.86 12.43L42.86 12.43L42.86 12.43Q42.28 12.74 41.56 12.74L41.56 12.74ZM41.73 11.62L41.73 11.62Q42.31 11.62 42.77 11.33L42.77 11.33L42.77 11.33Q43.22 11.03 43.49 10.56L43.49 10.56L43.49 10.56Q43.75 10.10 43.76 9.60L43.76 9.60L42.19 9.60L42.19 9.60Q41.39 9.60 40.99 9.86L40.99 9.86L40.99 9.86Q40.58 10.13 40.58 10.65L40.58 10.65L40.58 10.65Q40.58 11.12 40.90 11.37L40.90 11.37L40.90 11.37Q41.21 11.62 41.73 11.62L41.73 11.62ZM49.11 12.74L49.11 12.74Q48.18 12.74 47.70 12.22L47.70 12.22L47.70 12.22Q47.23 11.69 47.23 10.76L47.23 10.76L47.23 6.88L46.13 6.88L46.13 5.78L47.24 5.78L47.24 4.16L48.54 3.10L48.54 5.78L50.27 5.78L50.27 6.88L48.54 6.88L48.54 10.62L48.54 10.62Q48.54 11.13 48.77 11.37L48.77 11.37L48.77 11.37Q48.99 11.61 49.36 11.61L49.36 11.61L49.36 11.61Q49.56 11.61 49.78 11.55L49.78 11.55L49.78 11.55Q49.99 11.48 50.18 11.40L50.18 11.40L50.18 12.57L50.18 12.57Q50.01 12.64 49.72 12.69L49.72 12.69L49.72 12.69Q49.42 12.74 49.11 12.74L49.11 12.74ZM54.58 12.74L54.58 12.74Q53.59 12.74 52.83 12.26L52.83 12.26L52.83 12.26Q52.07 11.78 51.65 10.96L51.65 10.96L51.65 10.96Q51.22 10.14 51.22 9.17L51.22 9.17L51.22 9.17Q51.22 8.20 51.64 7.39L51.64 7.39L51.64 7.39Q52.06 6.58 52.83 6.11L52.83 6.11L52.83 6.11Q53.59 5.63 54.58 5.63L54.58 5.63L54.58 5.63Q55.56 5.63 56.32 6.11L56.32 6.11L56.32 6.11Q57.09 6.58 57.52 7.40L57.52 7.40L57.52 7.40Q57.95 8.21 57.95 9.17L57.95 9.17L57.95 9.17Q57.95 10.14 57.52 10.96L57.52 10.96L57.52 10.96Q57.09 11.78 56.32 12.26L56.32 12.26L56.32 12.26Q55.56 12.74 54.58 12.74L54.58 12.74ZM54.58 11.62L54.58 11.62Q55.25 11.62 55.70 11.28L55.70 11.28L55.70 11.28Q56.15 10.94 56.37 10.38L56.37 10.38L56.37 10.38Q56.58 9.83 56.58 9.17L56.58 9.17L56.58 9.17Q56.58 8.52 56.37 7.97L56.37 7.97L56.37 7.97Q56.15 7.42 55.70 7.09L55.70 7.09L55.70 7.09Q55.25 6.76 54.58 6.76L54.58 6.76L54.58 6.76Q53.92 6.76 53.47 7.09L53.47 7.09L53.47 7.09Q53.02 7.42 52.80 7.97L52.80 7.97L52.80 7.97Q52.59 8.52 52.59 9.17L52.59 9.17L52.59 9.17Q52.59 9.83 52.80 10.39L52.80 10.39L52.80 10.39Q53.02 10.94 53.47 11.28L53.47 11.28L53.47 11.28Q53.92 11.62 54.58 11.62L54.58 11.62Z"></path></g> <!----> <g data-v-5f19e91b="" id="52776683-747f-c9f3-75ad-236fbe5a7606" transform="matrix(0.976673553441889,0,0,0.976673553441889,-4.834087223943513,-3.9040996711447065)" stroke="none" fill="black"><path d="M77.704 12.876a8.1 8.1 0 0 1 2.264 4.053c.367-.27.756-.503 1.158-.706.971-1.92.654-4.314-.964-5.891a5.056 5.056 0 0 0-7.151.091l-.216.222c1.844.174 3.568.927 4.909 2.231zM48.893 26.914c.407.885.687 1.93.791 3.057l16.478-16.928c.63-.648 1.364-1.144 2.145-1.545 1.006-1.93.712-4.367-.925-5.96-2.002-1.948-5.213-1.891-7.155.108L44.722 21.575c2.321 2.261 3.098 3.024 4.171 5.339zM10.041 66.626c-.118-8.864 3.219-17.24 9.396-23.584l18.559-19.064c.727-2.031.497-4.076-.076-5.319-.843-1.817-1.314-2.271-3.55-4.451L13.501 35.645C2.944 46.489 2.253 63.277 11.239 74.94c-.729-2.681-1.161-5.462-1.198-8.314z"></path><path d="M21.678 45.206l20.869-21.437c2.237 2.18 2.708 2.634 3.55 4.451.837 1.819.994 5.356-1.607 8.05L32.642 48.514a1.194 1.194 0 0 0 .028 1.689 1.195 1.195 0 0 0 1.686-.019l34.047-34.976c1.941-1.999 5.153-2.056 7.155-.108 1.998 1.944 2.03 5.159.089 7.155L50.979 47.584c-.452.464-.437 1.224.038 1.688a1.195 1.195 0 0 0 1.689-.009l28.483-29.28a5.055 5.055 0 0 1 7.15-.09 5.052 5.052 0 0 1 .097 7.144L59.944 56.308a1.194 1.194 0 0 0 .038 1.688 1.193 1.193 0 0 0 1.678-.015l24.66-25.336c1.942-1.995 5.15-2.061 7.15-.113 2.003 1.949 2.043 5.175.101 7.17l-24.675 25.32a1.194 1.194 0 0 0 .038 1.688c.47.457 1.231.453 1.682-.014l14.56-14.973a5.067 5.067 0 0 1 7.159-.107 5.052 5.052 0 0 1 .09 7.164L64.792 87.17c-11.576 11.892-30.638 12.153-42.54.569-11.903-11.588-12.149-30.644-.574-42.533"></path></g></svg>