<svg data-v-1084b650="" xmlns="http://www.w3.org/2000/svg" viewBox="0 0 300 300"><!----> <!----> <rect data-v-1084b650="" fill="#ffffff" x="0" y="0" width="300px" height="300px" class="logo-background-square"></rect> <!----> <linearGradient data-v-1084b650="" gradientTransform="rotate(25)" id="96de7310-5518-f43a-a49a-8342b1a7086a" x1="0%" y1="0%" x2="100%" y2="0%"><stop data-v-1084b650="" offset="0%" style="stop-color: rgb(39, 109, 142); stop-opacity: 1;"></stop> <stop data-v-1084b650="" offset="100%" style="stop-color: rgb(221, 223, 212); stop-opacity: 1;"></stop></linearGradient> <g data-v-1084b650="" id="4e0d3eef-a0ef-503a-936f-3828ea915b6e" fill="url(#96de7310-5518-f43a-a49a-8342b1a7086a)" stroke="none" transform="matrix(0.7499999999999998,0,0,0.7499999999999998,37.59006071090701,37.08186364173892)"><svg xmlns="http://www.w3.org/2000/svg" viewBox="0 0 100.08 100"><path d="M77.704 12.876a8.1 8.1 0 0 1 2.264 4.053c.367-.27.756-.503 1.158-.706.971-1.92.654-4.314-.964-5.891a5.056 5.056 0 0 0-7.151.091l-.216.222c1.844.174 3.568.927 4.909 2.231zM48.893 26.914c.407.885.687 1.93.791 3.057l16.478-16.928c.63-.648 1.364-1.144 2.145-1.545 1.006-1.93.712-4.367-.925-5.96-2.002-1.948-5.213-1.891-7.155.108L44.722 21.575c2.321 2.261 3.098 3.024 4.171 5.339zM10.041 66.626c-.118-8.864 3.219-17.24 9.396-23.584l18.559-19.064c.727-2.031.497-4.076-.076-5.319-.843-1.817-1.314-2.271-3.55-4.451L13.501 35.645C2.944 46.489 2.253 63.277 11.239 74.94c-.729-2.681-1.161-5.462-1.198-8.314z"></path><path d="M21.678 45.206l20.869-21.437c2.237 2.18 2.708 2.634 3.55 4.451.837 1.819.994 5.356-1.607 8.05L32.642 48.514a1.194 1.194 0 0 0 .028 1.689 1.195 1.195 0 0 0 1.686-.019l34.047-34.976c1.941-1.999 5.153-2.056 7.155-.108 1.998 1.944 2.03 5.159.089 7.155L50.979 47.584c-.452.464-.437 1.224.038 1.688a1.195 1.195 0 0 0 1.689-.009l28.483-29.28a5.055 5.055 0 0 1 7.15-.09 5.052 5.052 0 0 1 .097 7.144L59.944 56.308a1.194 1.194 0 0 0 .038 1.688 1.193 1.193 0 0 0 1.678-.015l24.66-25.336c1.942-1.995 5.15-2.061 7.15-.113 2.003 1.949 2.043 5.175.101 7.17l-24.675 25.32a1.194 1.194 0 0 0 .038 1.688c.47.457 1.231.453 1.682-.014l14.56-14.973a5.067 5.067 0 0 1 7.159-.107 5.052 5.052 0 0 1 .09 7.164L64.792 87.17c-11.576 11.892-30.638 12.153-42.54.569-11.903-11.588-12.149-30.644-.574-42.533"></path></svg></g></svg>